<svg width="32" height="32" viewBox="0 0 32 32" fill="none" xmlns="http://www.w3.org/2000/svg">
<path d="M32 16C32 24.8366 24.8366 32 16 32C7.16344 32 0 24.8366 0 16C0 7.16344 7.16344 0 16 0C24.8366 0 32 7.16344 32 16Z" fill="white"/>
<path d="M8.98 10.1C8.98 9.88667 9.00667 9.73333 9.06 9.64C9.12667 9.54667 9.25333 9.5 9.44 9.5C9.64 9.5 9.88667 9.66667 10.18 10C10.4733 10.3333 10.62 10.6867 10.62 11.06C10.62 11.9933 10.0467 14.3533 8.9 18.14C8.32667 19.98 8.04 21.08 8.04 21.44C8.04 21.8 8.21333 21.98 8.56 21.98C10.0667 21.98 11.72 21.7333 13.52 21.24C14.0933 21.08 14.4333 21 14.54 21C14.66 21 14.74 21.0267 14.78 21.08C14.82 21.12 14.84 21.2067 14.84 21.34C14.84 21.9 14.1533 22.4267 12.78 22.92C11.42 23.4133 10.0333 23.66 8.62 23.66C7.98 23.66 7.42 23.4733 6.94 23.1C6.47333 22.7267 6.24 22.2867 6.24 21.78C6.24 21.26 6.69333 19.4133 7.6 16.24C8.52 13.0667 8.98 11.02 8.98 10.1Z" fill="black"/>
<path d="M21.598 11.36L18.178 11.52C17.9646 11.52 17.7446 11.38 17.518 11.1C17.2913 10.82 17.178 10.5467 17.178 10.28C17.178 10.04 17.558 9.88667 18.318 9.82C19.0913 9.75333 20.778 9.72 23.378 9.72C24.7246 9.72 25.8313 9.86667 26.698 10.16C27.578 10.4533 28.018 10.78 28.018 11.14C28.018 11.3933 27.798 11.52 27.358 11.52C26.918 11.52 26.3046 11.4933 25.518 11.44C24.7313 11.3867 23.978 11.3533 23.258 11.34C23.298 11.4733 23.318 11.62 23.318 11.78C23.318 12.2733 22.798 14.5667 21.758 18.66C21.6513 19.0867 21.4913 19.7533 21.278 20.66C21.0646 21.5667 20.9046 22.2 20.798 22.56C20.6113 23.2667 20.4446 23.62 20.298 23.62C20.098 23.62 19.8713 23.4733 19.618 23.18C19.378 22.8733 19.258 22.5667 19.258 22.26C19.258 21.9533 19.618 20.38 20.338 17.54C21.058 14.6867 21.478 12.6267 21.598 11.36Z" fill="black"/>
</svg>
